HIERARCHY
ROOT Hips
{
  OFFSET 54.8061 96.1008 7.5177
  CHANNELS 6 Xposition Yposition Zposition Zrotation Xrotation Yrotation
  JOINT spine
  {
    OFFSET 0 8.13249 0.467659
    CHANNELS 3 Zrotation Xrotation Yrotation
    JOINT spine1
    {
      OFFSET 0 10.3498 0
      CHANNELS 3 Zrotation Xrotation Yrotation
      JOINT spine2
      {
        OFFSET 0 9.91699 0
        CHANNELS 3 Zrotation Xrotation Yrotation
        JOINT Neck
        {
          OFFSET 0 25.461 1.2139
          CHANNELS 3 Zrotation Xrotation Yrotation
          JOINT Head
          {
            OFFSET 0 7.69245 0
            CHANNELS 3 Zrotation Xrotation Yrotation
            End Site
            {
              OFFSET 0 18.62 -6.14063
            }
          }
        }
        JOINT RightShoulder
        {
          OFFSET -4.17575 10.7096 -0.581445
          CHANNELS 3 Zrotation Xrotation Yrotation
          JOINT RightArm
          {
            OFFSET 0 14.0466 0
            CHANNELS 3 Zrotation Xrotation Yrotation
            JOINT RightArmRoll
            {
              OFFSET 0 7.09098 0
              CHANNELS 3 Zrotation Xrotation Yrotation
              JOINT RightForeArm
              {
                OFFSET 0 20.6535 0
                CHANNELS 3 Zrotation Xrotation Yrotation
                JOINT RightForeArmRoll
                {
                  OFFSET 0 7.95718 0
                  CHANNELS 3 Zrotation Xrotation Yrotation
                  JOINT RightHand
                  {
                    OFFSET 0 15.9683 0
                    CHANNELS 3 Zrotation Xrotation Yrotation
                    End Site
                    {
                      OFFSET 0 0 0
                    }
                  }
                }
              }
            }
          }
        }
        JOINT LeftShoulder
        {
          OFFSET 4.17575 10.7096 -0.581445
          CHANNELS 3 Zrotation Xrotation Yrotation
          JOINT LeftArm
          {
            OFFSET 0 14.0466 0
            CHANNELS 3 Zrotation Xrotation Yrotation
            JOINT LeftArmRoll
            {
              OFFSET 0 7.09098 0
              CHANNELS 3 Zrotation Xrotation Yrotation
              JOINT LeftForeArm
              {
                OFFSET 0 20.6535 0
                CHANNELS 3 Zrotation Xrotation Yrotation
                JOINT LeftForeArmRoll
                {
                  OFFSET 0 7.95718 0
                  CHANNELS 3 Zrotation Xrotation Yrotation
                  JOINT LeftHand
                  {
                    OFFSET 0 15.9683 0
                    CHANNELS 3 Zrotation Xrotation Yrotation
                    End Site
                    {
                      OFFSET 0 0 0
                    }
                  }
                }
              }
            }
          }
        }
      }
    }
  }
  JOINT RightUpLeg
  {
    OFFSET -7.20834 -1.32182 -1.10884
    CHANNELS 3 Zrotation Xrotation Yrotation
    JOINT RightUpLegRoll
    {
      OFFSET 0 18.7238 0
      CHANNELS 3 Zrotation Xrotation Yrotation
      JOINT RightLeg
      {
        OFFSET 0 -23.1866 0
        CHANNELS 3 Zrotation Xrotation Yrotation
        JOINT RightLegRoll
        {
          OFFSET 0 23.2624 0
          CHANNELS 3 Zrotation Xrotation Yrotation
          JOINT RightFoot
          {
            OFFSET 0 19.3621 0
            CHANNELS 3 Zrotation Xrotation Yrotation
            JOINT RightToeBase
            {
              OFFSET 0 16.1857 0
              CHANNELS 3 Zrotation Xrotation Yrotation
              End Site
              {
                OFFSET 0.00686052 7.83863 -0.903522
              }
            }
          }
        }
      }
    }
  }
  JOINT LeftUpLeg
  {
    OFFSET 7.20834 -1.32182 -1.10884
    CHANNELS 3 Zrotation Xrotation Yrotation
    JOINT LeftUpLegRoll
    {
      OFFSET 0 18.7239 0
      CHANNELS 3 Zrotation Xrotation Yrotation
      JOINT LeftLeg
      {
        OFFSET 0 23.1865 0
        CHANNELS 3 Zrotation Xrotation Yrotation
        JOINT LeftLegRoll
        {
          OFFSET 0 23.4775 0
          CHANNELS 3 Zrotation Xrotation Yrotation
          JOINT LeftFoot
          {
            OFFSET 0 19.147 0
            CHANNELS 3 Zrotation Xrotation Yrotation
            JOINT LeftToeBase
            {
              OFFSET 0 16.1857 0
              CHANNELS 3 Zrotation Xrotation Yrotation
              End Site
              {
                OFFSET -0.0307459 7.83863 -0.903521
              }
            }
          }
        }
      }
    }
  }
}
MOTION
Frames: 10
Frame Time: 0.00208333
54.7909 96.1376 6.58344 -1.55555 -3.43346 0.319139 0.332489 -1.537 0.12848 0.663694 0.925865 0.223854 0.659652 2.57086 0.213 11.1726 6.57368 -12.2507 7.8122 -1.48564 -9.0615 34.4038 -16.2899 -12.3384 48.39 52.778 59.8859 -4.13098e-007 3.31966e-006 -1.5145e-007 0.298356 65.139 1.61191 -4.47943e-006 5.43446e-006 -3.00708 8.02928 -4.95144 0.697674 -61.7027 -7.86221 4.96467 -106.851 17.7891 -8.91094 -2.70299e-006 -3.85211e-006 6.20598e-006 -8.71397 0.066716 1.0162 5.84922e-007 3.67504e-006 3.02363 -8.02901 -4.95144 -0.697678 173.311 2.31917 3.30766 180 7.0156e-015 178.981 178.927 10.8974 179.629 2.30606e-006 3.15075e-006 0.105866 -18.3037 68.973 20.3431 8.13649 25.2327 -3.48774 -170.975 1.47084 -3.1288 4.5067e-006 -1.99009e-005 -0.88188 -1.33622 -12.7492 0.49406 4.60539e-006 2.17844e-006 -0.0745376 18.0649 70.6711 -21.8238 -8.13665 25.2349 3.48467 
54.7895 96.1287 6.58468 -1.55311 -3.41375 0.346801 0.330935 -1.53947 0.127563 0.662948 0.921553 0.221982 0.658702 2.56655 0.211136 11.1632 6.52119 -12.2693 7.82991 -1.48623 -9.08551 34.4115 -16.3031 -12.3507 48.3602 52.7265 60.0813 -4.13098e-007 3.31966e-006 -1.5145e-007 0.127545 64.6529 1.7407 -4.47943e-006 5.43446e-006 -3.00708 8.02928 -4.95144 0.697674 -61.7088 -7.86762 4.96799 -106.844 17.7894 -8.90357 -2.70299e-006 -3.85211e-006 6.20598e-006 -8.71774 0.0667118 1.01406 5.84922e-007 3.67504e-006 3.02365 -8.02901 -4.95144 -0.697678 173.309 2.33594 3.30855 180 7.0156e-015 178.981 178.924 10.9007 179.629 2.30606e-006 3.15075e-006 0.105905 -18.3059 68.9759 20.345 8.13649 25.2327 -3.48774 -170.978 1.51087 -3.12208 4.5067e-006 -1.99009e-005 -0.881508 -1.33294 -12.7602 0.494873 4.60539e-006 2.17844e-006 -0.0740143 18.0574 70.6643 -21.817 -8.13665 25.2349 3.48467 
54.7937 96.1313 6.58511 -1.55079 -3.39487 0.373821 0.329461 -1.54181 0.126719 0.662251 0.917503 0.220245 0.657816 2.5625 0.209406 11.1525 6.46984 -12.287 7.84868 -1.48713 -9.10879 34.4185 -16.3158 -12.3627 48.3318 52.6755 60.2748 -4.13098e-007 3.31966e-006 -1.5145e-007 -0.0410675 64.1656 1.86575 -4.47943e-006 5.43446e-006 -3.00708 8.02928 -4.95144 0.697674 -61.7149 -7.87309 4.97135 -106.837 17.7895 -8.89677 -2.70299e-006 -3.85211e-006 6.20598e-006 -8.7213 0.0667076 1.01196 5.84922e-007 3.67504e-006 3.02367 -8.02901 -4.95144 -0.697678 173.307 2.35165 3.3093 180 7.0156e-015 178.981 178.922 10.9035 179.629 2.30606e-006 3.15075e-006 0.105942 -18.308 68.9786 20.3469 8.13649 25.2327 -3.48774 -170.98 1.54921 -3.11561 4.5067e-006 -1.99009e-005 -0.881119 -1.32971 -12.7706 0.495671 4.60539e-006 2.17844e-006 -0.0734836 18.0498 70.6577 -21.8104 -8.13665 25.2349 3.48467 
54.7935 96.138 6.58642 -1.5486 -3.37725 0.399917 0.3281 -1.5439 0.126009 0.661605 0.913886 0.218762 0.657003 2.55888 0.207929 11.1409 6.41897 -12.3041 7.86795 -1.48761 -9.13148 34.4249 -16.3283 -12.3744 48.3043 52.6254 60.4671 -4.13098e-007 3.31966e-006 -1.5145e-007 -0.207619 63.6768 1.98719 -4.47943e-006 5.43446e-006 -3.00707 8.02928 -4.95144 0.697674 -61.7209 -7.87849 4.97466 -106.83 17.7893 -8.8907 -2.70299e-006 -3.85211e-006 6.20598e-006 -8.72451 0.0667035 1.00992 5.84923e-007 3.67504e-006 3.02369 -8.02901 -4.95144 -0.697678 173.305 2.36573 3.30986 180 7.0156e-015 178.981 178.92 10.9057 179.63 2.30606e-006 3.15075e-006 0.10598 -18.3098 68.981 20.3485 8.13649 25.2327 -3.48774 -170.983 1.5849 -3.10952 4.5067e-006 -1.99009e-005 -0.880723 -1.32659 -12.7798 0.496437 4.60539e-006 2.17844e-006 -0.0729485 18.0422 70.6512 -21.8039 -8.13665 25.2349 3.48467 
54.7916 96.1355 6.58718 -1.54657 -3.3613 0.424802 0.326884 -1.54567 0.125494 0.661012 0.910879 0.217657 0.656267 2.55587 0.206827 11.1287 6.36791 -12.3205 7.88715 -1.48693 -9.1537 34.4305 -16.3403 -12.3858 48.2775 52.5763 60.6585 -4.13098e-007 3.31966e-006 -1.5145e-007 -0.372232 63.186 2.10515 -4.47943e-006 5.43446e-006 -3.00707 8.02928 -4.95144 0.697674 -61.7264 -7.88366 4.97784 -106.824 17.7888 -8.88551 -2.70299e-006 -3.85211e-006 6.20598e-006 -8.72727 0.0666995 1.00798 5.84922e-007 3.67504e-006 3.02371 -8.02901 -4.95144 -0.697678 173.304 2.37762 3.31021 180 7.0156e-015 178.981 178.918 10.9069 179.63 2.30606e-006 3.15075e-006 0.106018 -18.3113 68.9829 20.35 8.13649 25.2327 -3.48774 -170.985 1.61697 -3.10393 4.5067e-006 -1.99009e-005 -0.880326 -1.32364 -12.7875 0.497153 4.60539e-006 2.17844e-006 -0.0724122 18.0345 70.6449 -21.7976 -8.13665 25.2349 3.48467 
54.8106 96.1119 6.53489 -1.54471 -3.34745 0.448194 0.325845 -1.54702 0.125234 0.660473 0.908654 0.217049 0.655616 2.55365 0.206222 11.1162 6.31602 -12.3363 7.90574 -1.48434 -9.17561 34.4355 -16.3521 -12.397 48.251 52.5286 60.8495 -4.13098e-007 3.31966e-006 -1.5145e-007 -0.535015 62.6927 2.21975 -4.47943e-006 5.43446e-006 -3.00707 8.02928 -4.95144 0.697674 -61.7312 -7.88847 4.98078 -106.818 17.7881 -8.88138 -2.70299e-006 -3.85211e-006 6.20598e-006 -8.72944 0.0666955 1.00618 5.84923e-007 3.67504e-006 3.02374 -8.02901 -4.95144 -0.697678 173.303 2.38674 3.3103 180 7.0156e-015 178.981 178.917 10.9069 179.63 2.30606e-006 3.15075e-006 0.106055 -18.3125 68.9844 20.3513 8.13649 25.2327 -3.48774 -170.987 1.64447 -3.09898 4.5067e-006 -1.99009e-005 -0.879939 -1.32091 -12.7931 0.4978 4.60539e-006 2.17844e-006 -0.0718779 18.0269 70.639 -21.7916 -8.13665 25.2349 3.48467 
54.8056 96.1158 6.54469 -1.54303 -3.33611 0.469808 0.325015 -1.54785 0.12529 0.659991 0.907387 0.21706 0.655057 2.55238 0.206236 11.1037 6.26264 -12.3515 7.92315 -1.4791 -9.19732 34.4397 -16.3635 -12.4079 48.2243 52.4825 61.0407 -4.13098e-007 3.31966e-006 -1.5145e-007 -0.696062 62.1966 2.33108 -4.47943e-006 5.43446e-006 -3.00707 8.02928 -4.95144 0.697674 -61.735 -7.89275 4.98339 -106.814 17.787 -8.87847 -2.70299e-006 -3.85211e-006 6.20598e-006 -8.73091 0.0666917 1.00456 5.84922e-007 3.67504e-006 3.02376 -8.02901 -4.95144 -0.697678 173.303 2.39253 3.31011 180 7.0156e-015 178.981 178.916 10.9054 179.631 2.30606e-006 3.15075e-006 0.106091 -18.3134 68.9852 20.3522 8.13649 25.2327 -3.48774 -170.988 1.66645 -3.09479 4.5067e-006 -1.99009e-005 -0.87957 -1.31845 -12.7963 0.498361 4.60539e-006 2.17844e-006 -0.0713487 18.0193 70.6332 -21.7858 -8.13665 25.2349 3.48467 
54.8028 96.1262 6.54309 -1.54157 -3.32772 0.489359 0.324427 -1.54806 0.125724 0.659568 0.907251 0.217813 0.654595 2.55225 0.206989 11.0916 6.20712 -12.366 7.93883 -1.47048 -9.21899 34.4432 -16.3745 -12.4186 48.1972 52.4381 61.2325 -4.13098e-007 3.31966e-006 -1.5145e-007 -0.855457 61.6973 2.43925 -4.47943e-006 5.43446e-006 -3.00707 8.02928 -4.95144 0.697674 -61.7376 -7.89637 4.98557 -106.811 17.7857 -8.87692 -2.70299e-006 -3.85211e-006 6.20598e-006 -8.73157 0.0666881 1.00314 5.84923e-007 3.67504e-006 3.02378 -8.02901 -4.95144 -0.697678 173.303 2.3944 3.30961 180 7.0156e-015 178.981 178.916 10.9021 179.631 2.30606e-006 3.15075e-006 0.106128 -18.3138 68.9853 20.3528 8.13649 25.2327 -3.48774 -170.989 1.68194 -3.09151 4.5067e-006 -1.99009e-005 -0.879227 -1.31632 -12.7965 0.498818 4.60539e-006 2.17844e-006 -0.0708278 18.0118 70.6279 -21.7804 -8.13665 25.2349 3.48467 
54.7982 96.1189 6.53418 -1.54026 -3.32225 0.506858 0.324089 -1.54767 0.126525 0.65923 0.908238 0.219237 0.654263 2.55323 0.208412 11.0783 6.15064 -12.3798 7.95469 -1.45975 -9.24029 34.4456 -16.385 -12.4289 48.1716 52.3946 61.4236 -4.13098e-007 3.31966e-006 -1.5145e-007 -1.01363 61.1972 2.54516 -4.47943e-006 5.43446e-006 -3.00707 8.02928 -4.95144 0.697674 -61.7394 -7.89963 4.98753 -106.809 17.7841 -8.87647 -2.70299e-006 -3.85211e-006 6.20598e-006 -8.73161 0.0666845 1.00188 5.84923e-007 3.67504e-006 3.02381 -8.02901 -4.95144 -0.697678 173.304 2.39243 3.30875 180 7.0156e-015 178.981 178.917 10.8971 179.631 2.30606e-006 3.15075e-006 0.106164 -18.3136 68.9846 20.353 8.13649 25.2327 -3.48774 -170.989 1.69106 -3.08906 4.5067e-006 -1.99009e-005 -0.878887 -1.31451 -12.7938 0.499163 4.60539e-006 2.17844e-006 -0.0702948 18.0043 70.6228 -21.7753 -8.13665 25.2349 3.48467 
54.7968 96.1249 6.54258 -1.53906 -3.31922 0.522639 0.323967 -1.5468 0.127617 0.658993 0.910138 0.221144 0.654075 2.55514 0.210313 11.0623 6.09485 -12.3926 7.97277 -1.44868 -9.26083 34.4464 -16.3948 -12.4386 48.1491 52.3512 61.6123 -4.13098e-007 3.31966e-006 -1.5145e-007 -1.17097 60.6988 2.64956 -4.47943e-006 5.43446e-006 -3.00706 8.02928 -4.95144 0.697674 -61.7412 -7.90291 4.98951 -106.806 17.7822 -8.87674 -2.70299e-006 -3.85211e-006 6.20598e-006 -8.73131 0.066681 1.00069 5.84923e-007 3.67504e-006 3.02383 -8.02901 -4.95144 -0.697678 173.305 2.38733 3.30755 180 7.0156e-015 178.981 178.917 10.8907 179.631 2.30606e-006 3.15075e-006 0.1062 -18.3129 68.9832 20.353 8.13649 25.2327 -3.48774 -170.989 1.69502 -3.08727 4.5067e-006 -1.99009e-005 -0.878526 -1.31294 -12.7889 0.499411 4.60539e-006 2.17844e-006 -0.0697315 17.9967 70.618 -21.7704 -8.13665 25.2349 3.48467 
